# xmcd
#
# Track frame offsets: 
#        150
#        15150
#        34549
#        51124
#        68074
#        88099
#        106249
#        120859
#
# Disc length: 1803 seconds
#
# Revision: 0
# Processed by: cddbd v1.5.2PL0 Copyright (c) Steve Scherf et al.
# Submitted via: ExactAudioCopy v0.99pb5
#
DISCID=51070908
DTITLE=Bars Up - Season EP: Invierno
DYEAR=2010
DGENRE=Rap
TTITLE0=Season (Prod. by A.P.)
TTITLE1=California Remix Ft Green Eagles (Prod. by A.P.)
TTITLE2=Smoke It Off (Prod. by A.P.)
TTITLE3=They Need Me (Prod. by Beat Klasick)
TTITLE4=So Fly (Prod. by A.P.)
TTITLE5=Finally Found (Prod. by Beat Klasick)
TTITLE6=Last Call Ft Phillie and Rick (Prod. by A.P.)
TTITLE7=Act Like Ya Know (Prod. by A.P.)
EXTD=
EXTT0=
EXTT1=
EXTT2=
EXTT3=
EXTT4=
EXTT5=
EXTT6=
EXTT7=
PLAYORDER=
